<svg width="32" height="32" viewBox="0 0 32 32" fill="none" xmlns="http://www.w3.org/2000/svg">
<path fill-rule="evenodd" clip-rule="evenodd" d="M6.94462 21.2084L6.94114 21.2049L24.253 3.78559L24.2565 3.78909L25.1654 4.70362L7.85351 22.123L6.94462 21.2084ZM20.4699 3.78909C21.1342 3.12074 22.0606 2.87695 22.916 3.05773L6.21777 19.8597C6.03811 18.9989 6.28039 18.0667 6.94462 17.3984L20.4699 3.78909ZM8.8837 23.1595L26.1956 5.7402L27.108 6.65824L9.79608 24.0776L8.8837 23.1595ZM10.8262 25.1141L28.1381 7.69481L29.0505 8.61285L11.7386 26.0322L10.8262 25.1141ZM12.7688 27.0687L30.0807 9.64943L30.9931 10.5675L13.6812 27.9868L12.7688 27.0687ZM14.8917 28.8419L31.8429 11.7855C32.1816 12.7362 31.9726 13.8401 31.2157 14.6017L17.6905 28.2109C16.9336 28.9724 15.8365 29.1828 14.8917 28.8419ZM11.1123 3.9815L15.0428 7.93649L5.95923 17.0764C5.46415 17.5746 5.21229 18.2249 5.20365 18.8776L0.755808 14.4022C-0.251936 13.3882 -0.251936 11.7442 0.755809 10.7302L7.46288 3.98151C8.47062 2.9675 10.1045 2.9675 11.1123 3.9815Z" fill="#4022F5"/>
</svg>
