<svg width="24" height="24" viewBox="0 0 24 24" fill="none" xmlns="http://www.w3.org/2000/svg">
<g id="Cancel">
<mask id="mask0_3_862" style="mask-type:alpha" maskUnits="userSpaceOnUse" x="1" y="1" width="22" height="22">
<path id="vector" fill-rule="evenodd" clip-rule="evenodd" d="M12 23C5.93209 23 1 18.0679 1 12C1 5.93209 5.93209 1 12 1C18.0679 1 23 5.93209 23 12C23 18.0679 18.0679 23 12 23ZM12 2.53488C6.7814 2.53488 2.53488 6.7814 2.53488 12C2.53488 17.2186 6.7814 21.4651 12 21.4651C17.2186 21.4651 21.4651 17.2186 21.4651 12C21.4651 6.7814 17.2186 2.53488 12 2.53488ZM9.10418 15.6633C8.90977 15.6633 8.71535 15.5916 8.56186 15.4381C8.26512 15.1414 8.26512 14.6502 8.56186 14.3535L10.9153 12L8.56186 9.64651C8.26512 9.34977 8.26512 8.8586 8.56186 8.56186C8.8586 8.26512 9.34977 8.26512 9.64651 8.56186L12 10.9153L14.3535 8.56186C14.6502 8.26512 15.1414 8.26512 15.4381 8.56186C15.7349 8.8586 15.7349 9.34977 15.4381 9.64651L13.0846 12L15.4381 14.3535C15.7349 14.6502 15.7349 15.1414 15.4381 15.4381C15.2846 15.5916 15.0902 15.6633 14.8958 15.6633C14.7014 15.6633 14.507 15.5916 14.3535 15.4381L12 13.0846L9.64651 15.4381C9.50325 15.5916 9.2986 15.6633 9.10418 15.6633Z" fill="black"/>
</mask>
<g mask="url(#mask0_3_862)">
<rect id="color" width="24" height="24" fill="red"/>
</g>
</g>
</svg>
