<svg width="24" height="24" viewBox="0 0 24 24" fill="none" xmlns="http://www.w3.org/2000/svg">
<g id="Close">
<mask id="mask0_3_902" style="mask-type:alpha" maskUnits="userSpaceOnUse" x="5" y="5" width="14" height="14">
<path id="vector" fill-rule="evenodd" clip-rule="evenodd" d="M17.6567 18.7695C17.964 19.0768 18.4622 19.0768 18.7695 18.7695C19.0768 18.4622 19.0768 17.964 18.7695 17.6567L13.0201 11.9073L18.5841 6.34327C18.8914 6.03598 18.8914 5.53776 18.5841 5.23047C18.2768 4.92318 17.7786 4.92318 17.4713 5.23047L11.9073 10.7945L6.52873 5.41593C6.22144 5.10864 5.72323 5.10864 5.41593 5.41593C5.10864 5.72323 5.10864 6.22144 5.41594 6.52873L10.7945 11.9073L5.23047 17.4713C4.92318 17.7786 4.92318 18.2768 5.23047 18.5841C5.53776 18.8914 6.03598 18.8914 6.34327 18.5841L11.9073 13.0201L17.6567 18.7695Z" fill="black"/>
</mask>
<g mask="url(#mask0_3_902)">
<rect id="color" width="24" height="24" fill="#2D3045"/>
</g>
</g>
</svg>
