<svg width="24" height="24" viewBox="0 0 24 24" fill="none" xmlns="http://www.w3.org/2000/svg">
<g id="Contract">
<mask id="mask0_3_982" style="mask-type:alpha" maskUnits="userSpaceOnUse" x="2" y="2" width="20" height="20">
<path id="vector" fill-rule="evenodd" clip-rule="evenodd" d="M9.2093 22H14.7907C19.8419 22 22 19.8419 22 14.7907V10.1395C22 10.0274 21.9727 9.92089 21.9244 9.8264C21.8915 9.76036 21.8482 9.69935 21.7953 9.64651L14.3535 2.20465C14.3338 2.18585 14.3132 2.16825 14.2919 2.1519C14.1727 2.05705 14.0224 2 13.8605 2H9.2093C4.15814 2 2 4.15814 2 9.2093V14.7907C2 19.8419 4.15814 22 9.2093 22ZM13.1628 3.39535H9.2093C4.92093 3.39535 3.39535 4.92093 3.39535 9.2093V14.7907C3.39535 19.0791 4.92093 20.6047 9.2093 20.6047H14.7907C19.0791 20.6047 20.6047 19.0791 20.6047 14.7907V10.8372H17.5814C14.4 10.8372 13.1628 9.6 13.1628 6.4186V3.39535ZM14.5581 6.4186V4.38139L19.6186 9.44186H17.5814C15.1814 9.44186 14.5581 8.8186 14.5581 6.4186ZM12.9302 13.6279H7.34884C6.96744 13.6279 6.65116 13.3116 6.65116 12.9302C6.65116 12.5488 6.96744 12.2326 7.34884 12.2326H12.9302C13.3116 12.2326 13.6279 12.5488 13.6279 12.9302C13.6279 13.3116 13.3116 13.6279 12.9302 13.6279ZM6.65116 16.6512C6.65116 17.0326 6.96744 17.3488 7.34884 17.3488H11.0698C11.4512 17.3488 11.7674 17.0326 11.7674 16.6512C11.7674 16.2698 11.4512 15.9535 11.0698 15.9535H7.34884C6.96744 15.9535 6.65116 16.2698 6.65116 16.6512Z" fill="black"/>
</mask>
<g mask="url(#mask0_3_982)">
<rect id="color" width="24" height="24" fill="currentColor"/>
</g>
</g>
</svg>
