<svg width="24" height="24" viewBox="0 0 24 24" fill="none" xmlns="http://www.w3.org/2000/svg">
<mask id="mask0_1375_12583" style="mask-type:alpha" maskUnits="userSpaceOnUse" x="2" y="2" width="20" height="20">
<path fill-rule="evenodd" clip-rule="evenodd" d="M13.3602 3.91898C12.5627 3.29478 11.4373 3.29478 10.6398 3.91898L3.92726 9.1728C3.63432 9.40208 3.46341 9.75172 3.46341 10.1217V18.3729C3.46341 19.5748 4.4462 20.5492 5.65854 20.5492H8.09756C8.23226 20.5492 8.34146 20.4409 8.34146 20.3074V16.9221C8.34146 15.7202 9.32425 14.7458 10.5366 14.7458H13.4634C14.6757 14.7458 15.6585 15.7202 15.6585 16.9221V20.3074C15.6585 20.4409 15.7677 20.5492 15.9024 20.5492H18.3415C19.5538 20.5492 20.5366 19.5748 20.5366 18.3729V10.1217C20.5366 9.75172 20.3657 9.40208 20.0727 9.1728L13.3602 3.91898ZM9.73301 2.78025C11.0622 1.73992 12.9378 1.73992 14.267 2.78025L20.9795 8.03406C21.624 8.53848 22 9.3077 22 10.1217V18.3729C22 20.3761 20.362 22 18.3415 22H15.9024C14.9595 22 14.1951 21.2422 14.1951 20.3074V16.9221C14.1951 16.5214 13.8675 16.1967 13.4634 16.1967H10.5366C10.1325 16.1967 9.80488 16.5214 9.80488 16.9221V20.3074C9.80488 21.2422 9.04049 22 8.09756 22H5.65854C3.63798 22 2 20.3761 2 18.3729V10.1217C2 9.3077 2.376 8.53848 3.02047 8.03406L9.73301 2.78025Z" fill="#C5C7DA"/>
</mask>
<g mask="url(#mask0_1375_12583)">
<rect x="3.05176e-05" width="24" height="24" fill="currentColor"/>
</g>
</svg>
