<svg width="20" height="20" viewBox="0 0 20 20" fill="none" xmlns="http://www.w3.org/2000/svg">
<path fill-rule="evenodd" clip-rule="evenodd" d="M5.41333 2C4.96497 1.99956 4.52091 2.08755 4.10659 2.25893C3.69227 2.43031 3.31581 2.68172 2.99877 2.99877C2.68172 3.31581 2.43031 3.69227 2.25893 4.10659C2.08755 4.52091 1.99956 4.96497 2 5.41333V18H14.5867C15.035 18.0004 15.4791 17.9124 15.8934 17.7411C16.3077 17.5697 16.6842 17.3183 17.0012 17.0012C17.3183 16.6842 17.5697 16.3077 17.7411 15.8934C17.9124 15.4791 18.0004 15.035 18 14.5867V2H5.41333ZM5.43333 6.92333C5.13374 6.92399 4.8407 6.83571 4.59132 6.66968C4.34194 6.50365 4.14746 6.26733 4.03251 5.99067C3.91755 5.71401 3.8873 5.40945 3.94559 5.11558C4.00387 4.82172 4.14807 4.55176 4.35992 4.33992C4.57176 4.12807 4.84172 3.98387 5.13558 3.92559C5.42945 3.8673 5.73401 3.89755 6.01067 4.01251C6.28733 4.12746 6.52365 4.32194 6.68968 4.57132C6.85571 4.8207 6.94399 5.11374 6.94333 5.41333C6.94333 5.81381 6.78425 6.19789 6.50107 6.48106C6.21789 6.76425 5.83381 6.92333 5.43333 6.92333ZM10.02 16.1C9.72069 16.1 9.4281 16.0112 9.17924 15.845C8.93037 15.6787 8.7364 15.4423 8.62186 15.1658C8.50732 14.8893 8.47735 14.585 8.53575 14.2914C8.59414 13.9979 8.73827 13.7282 8.94991 13.5166C9.16156 13.3049 9.43121 13.1608 9.72476 13.1024C10.0183 13.044 10.3226 13.074 10.5991 13.1885C10.8757 13.3031 11.112 13.497 11.2783 13.7459C11.4446 13.9948 11.5333 14.2874 11.5333 14.5867C11.5338 14.7855 11.4949 14.9825 11.419 15.1663C11.3431 15.3501 11.2317 15.5171 11.0911 15.6577C10.9505 15.7983 10.7835 15.9098 10.5996 15.9857C10.4158 16.0616 10.2189 16.1004 10.02 16.1ZM10.02 11.51C9.72149 11.5093 9.42988 11.4202 9.182 11.2539C8.93412 11.0876 8.7411 10.8515 8.62732 10.5755C8.51354 10.2996 8.48412 9.99607 8.54276 9.70338C8.6014 9.41068 8.74547 9.14194 8.95678 8.9311C9.16809 8.72025 9.43715 8.57677 9.72997 8.51878C10.0228 8.46078 10.3262 8.49088 10.602 8.60526C10.8777 8.71965 11.1133 8.91319 11.2791 9.16144C11.4449 9.40968 11.5333 9.70149 11.5333 10C11.5333 10.1986 11.4942 10.3952 11.4181 10.5786C11.342 10.762 11.2305 10.9287 11.0899 11.0689C10.9493 11.2092 10.7825 11.3203 10.5989 11.396C10.4153 11.4717 10.2186 11.5104 10.02 11.51ZM10.02 6.92333C9.72055 6.92333 9.42783 6.83449 9.17889 6.66806C8.92995 6.50162 8.73599 6.26508 8.62155 5.98836C8.5071 5.71164 8.47733 5.40718 8.53599 5.11354C8.59466 4.81989 8.73912 4.55024 8.9511 4.33873C9.16307 4.12722 9.43303 3.98336 9.72681 3.92534C10.0206 3.86733 10.325 3.89777 10.6014 4.01282C10.8779 4.12787 11.114 4.32236 11.2799 4.57167C11.4458 4.82097 11.534 5.11388 11.5333 5.41333C11.5333 5.61191 11.4942 5.80854 11.4181 5.99196C11.342 6.17538 11.2305 6.34199 11.0899 6.48225C10.9493 6.62251 10.7825 6.73366 10.5989 6.80935C10.4153 6.88504 10.2186 6.92377 10.02 6.92333ZM14.61 16.1C14.3105 16.1007 14.0176 16.0125 13.7683 15.8466C13.519 15.6807 13.3245 15.4446 13.2095 15.1681C13.0944 14.8916 13.064 14.5873 13.122 14.2935C13.18 13.9997 13.3239 13.7297 13.5354 13.5178C13.7469 13.3058 14.0166 13.1613 14.3102 13.1027C14.6038 13.044 14.9083 13.0738 15.185 13.1882C15.4617 13.3027 15.6983 13.4966 15.8647 13.7456C16.0312 13.9945 16.12 14.2872 16.12 14.5867C16.12 14.9874 15.961 15.3719 15.6779 15.6556C15.3948 15.9393 15.0108 16.0991 14.61 16.1ZM14.61 6.92333C14.3104 6.92399 14.0174 6.83571 13.768 6.66968C13.5186 6.50365 13.3241 6.26733 13.2092 5.99067C13.0942 5.71401 13.064 5.40945 13.1223 5.11558C13.1805 4.82172 13.3247 4.55176 13.5366 4.33992C13.7484 4.12807 14.0184 3.98387 14.3122 3.92559C14.6061 3.8673 14.9107 3.89755 15.1873 4.01251C15.464 4.12746 15.7003 4.32194 15.8663 4.57132C16.0324 4.8207 16.1207 5.11374 16.12 5.41333C16.12 5.61163 16.0809 5.80798 16.0051 5.99119C15.9292 6.17439 15.8179 6.34085 15.6777 6.48106C15.5375 6.62128 15.3711 6.73251 15.1878 6.80839C15.0046 6.88428 14.8083 6.92333 14.61 6.92333Z" fill="url(#paint0_linear_1431_6509)"/>
<defs>
<linearGradient id="paint0_linear_1431_6509" x1="10" y1="18" x2="10" y2="2" gradientUnits="userSpaceOnUse">
<stop stop-color="#0047A7"/>
<stop offset="0.99" stop-color="#296DCB"/>
</linearGradient>
</defs>
</svg>
