<svg width="24" height="24" viewBox="0 0 24 24" fill="none" xmlns="http://www.w3.org/2000/svg">
<g id="Warning">
<mask id="mask0_3_866" style="mask-type:alpha" maskUnits="userSpaceOnUse" x="1" y="2" width="22" height="20">
<path id="vector" fill-rule="evenodd" clip-rule="evenodd" d="M11.0772 2.08964C11.6864 1.97012 12.3136 1.97012 12.9228 2.08964C14.2765 2.35524 15.443 3.19056 16.1134 4.3744L22.4432 15.5516C22.8084 16.1965 23 16.9219 23 17.6595C23 20.0567 21.0191 22 18.5755 22H5.42446C2.9809 22 1 20.0567 1 17.6596C1 16.9219 1.19163 16.1965 1.55679 15.5516L7.88656 4.3744C8.55698 3.19056 9.72348 2.35524 11.0772 2.08964ZM12.6218 3.56614C12.2113 3.4856 11.7887 3.4856 11.3782 3.56614C10.466 3.7451 9.68003 4.30796 9.22829 5.10565L2.89852 16.2829C2.66003 16.704 2.53488 17.1778 2.53488 17.6596C2.53488 19.2251 3.82859 20.4943 5.42446 20.4943H18.5755C20.1714 20.4943 21.4651 19.2251 21.4651 17.6595C21.4651 17.1778 21.34 16.704 21.1015 16.2829L14.7717 5.10565C14.32 4.30796 13.534 3.7451 12.6218 3.56614ZM12 13.4675C11.5762 13.4675 11.2326 13.1304 11.2326 12.7146V8.69931C11.2326 8.28351 11.5762 7.94644 12 7.94644C12.4238 7.94644 12.7674 8.28351 12.7674 8.69931V12.7146C12.7674 13.1304 12.4238 13.4675 12 13.4675ZM12.7674 16.228C12.7674 16.6438 12.4238 16.9809 12 16.9809C11.5762 16.9809 11.2326 16.6438 11.2326 16.228V15.7261C11.2326 15.3103 11.5762 14.9732 12 14.9732C12.4238 14.9732 12.7674 15.3103 12.7674 15.7261V16.228Z" fill="black"/>
</mask>
<g mask="url(#mask0_3_866)">
<rect id="color" width="24" height="24" fill="orange"/>
</g>
</g>
</svg>
