<svg width="24" height="24" viewBox="0 0 24 24" fill="none" xmlns="http://www.w3.org/2000/svg">
<mask id="mask0_3_870" style="mask-type:alpha" maskUnits="userSpaceOnUse" x="1" y="1" width="22" height="22">
<path fill-rule="evenodd" clip-rule="evenodd" d="M21.4722 12C21.4722 17.2314 17.2314 21.4722 12 21.4722C6.76864 21.4722 2.52778 17.2314 2.52778 12C2.52778 6.76864 6.76864 2.52778 12 2.52778C17.2314 2.52778 21.4722 6.76864 21.4722 12ZM23 12C23 18.0751 18.0751 23 12 23C5.92487 23 1 18.0751 1 12C1 5.92487 5.92487 1 12 1C18.0751 1 23 5.92487 23 12ZM8.63915 9.32539C8.63746 9.36531 8.64396 9.40515 8.65828 9.44246C8.6726 9.47977 8.69441 9.51377 8.72239 9.54236C8.75037 9.57096 8.78392 9.59354 8.82098 9.60873C8.85804 9.62392 8.89782 9.63138 8.93788 9.63067H9.96049C10.1315 9.63067 10.2679 9.49101 10.2902 9.32169C10.4018 8.5109 10.9595 7.92011 11.9536 7.92011C12.804 7.92011 13.5824 8.34404 13.5824 9.36371C13.5824 10.1485 13.1188 10.5094 12.3862 11.0582C11.552 11.6626 10.8914 12.3683 10.9385 13.514L10.9422 13.7822C10.9435 13.8633 10.9767 13.9407 11.0347 13.9975C11.0927 14.0544 11.1707 14.0863 11.2521 14.0863H12.2573C12.3395 14.0863 12.4183 14.0537 12.4765 13.9958C12.5346 13.9378 12.5672 13.8593 12.5672 13.7773V13.6475C12.5672 12.7601 12.9056 12.5018 13.8191 11.8109C14.574 11.2387 15.3611 10.6034 15.3611 9.26978C15.3611 7.40225 13.7795 6.5 12.0479 6.5C10.4774 6.5 8.75691 7.22921 8.63915 9.32539ZM12.7235 16.6348C12.7235 17.1127 12.335 17.5 11.8558 17.5C11.3766 17.5 10.9881 17.1127 10.9881 16.6348C10.9881 16.157 11.3766 15.7697 11.8558 15.7697C12.335 15.7697 12.7235 16.157 12.7235 16.6348Z" fill="black"/>
</mask>
<g mask="url(#mask0_3_870)">
<rect width="24" height="24" fill="#2D3045"/>
</g>
</svg>
